<?xml version="1.0" encoding="utf-8"?>
<svg viewBox="0 0 502.66 502.66" xmlns="http://www.w3.org/2000/svg" xmlns:xlink="http://www.w3.org/1999/xlink">
<style>:root>svg{display:none}:root>svg:target{display:block}</style>
<svg viewBox="0 0 12 12" id="chevron-right" xmlns="http://www.w3.org/2000/svg">
<path d="M4.207.293a1 1 0 00-1.414 1.414L4.207.293zM8.5 6l.707.707a1 1 0 000-1.414L8.5 6zm-5.707 4.293a1 1 0 101.414 1.414l-1.414-1.414zm0-8.586l5 5 1.414-1.414-5-5-1.414 1.414zm5 3.586l-5 5 1.414 1.414 5-5-1.414-1.414z"/>
</svg>
<svg viewBox="0 0 502.664 502.664" id="icon" xmlns="http://www.w3.org/2000/svg">
<path d="M153.821 358.226L0 274.337v-46.463l153.821-83.414v54.574L46.636 250.523l107.185 53.431v54.272zm26.273 29.358L282.103 115.08h32.227L212.084 387.584h-31.99zm168.749-29.358v-54.272l107.164-52.999-107.164-52.59v-53.927l153.821 83.522v46.183l-153.821 84.083z"/>
</svg>
<svg viewBox="0 0 24 24" id="ok" xmlns="http://www.w3.org/2000/svg">
<path d="M12.011 9.945a2.054 2.054 0 002.055-2.073A2.058 2.058 0 0012 5.81a2.062 2.062 0 00-2.07 2.089 2.059 2.059 0 002.081 2.047z"/>
<path d="M12 0C5.373 0 0 5.373 0 12s5.373 12 12 12 12-5.373 12-12S18.627 0 12 0zm.017 3.65c2.338.006 4.214 1.918 4.202 4.28-.012 2.31-1.919 4.18-4.252 4.173-2.31-.008-4.204-1.923-4.19-4.236a4.233 4.233 0 014.24-4.218zm4.734 10.113a5.081 5.081 0 01-1.83 1.183c-.653.253-1.368.38-2.077.465.107.117.158.174.225.24.961.967 1.927 1.929 2.885 2.898.327.33.395.74.215 1.124-.196.42-.636.696-1.068.666-.274-.019-.487-.154-.676-.345-.726-.73-1.466-1.448-2.176-2.192-.208-.216-.307-.175-.49.013-.73.752-1.472 1.492-2.218 2.228-.335.33-.734.39-1.122.201-.414-.2-.676-.622-.656-1.046.014-.287.155-.506.352-.702.952-.95 1.9-1.903 2.85-2.855.063-.063.121-.13.213-.229-1.295-.135-2.462-.453-3.462-1.235-.124-.097-.252-.191-.365-.3-.438-.42-.481-.902-.136-1.397.297-.424.794-.538 1.31-.294.1.047.196.106.287.17 1.863 1.28 4.422 1.314 6.292.056a1.73 1.73 0 01.613-.316.961.961 0 011.1.44c.275.446.271.88-.066 1.227z"/>
</svg>
<svg viewBox="0 0 24 24" id="social3" xmlns="http://www.w3.org/2000/svg">
<path fill-rule="evenodd" clip-rule="evenodd" d="M12 24c6.627 0 12-5.373 12-12S18.627 0 12 0 0 5.373 0 12s5.373 12 12 12zm-1.718-13.718C11.5 9.066 11.72 7.243 11.76 4h.48c.04 3.243.261 5.066 1.478 6.282C14.934 11.5 16.757 11.72 20 11.76v.48c-3.243.04-5.066.261-6.282 1.478C12.5 14.934 12.28 16.757 12.24 20h-.48c-.04-3.243-.261-5.066-1.478-6.282C9.066 12.5 7.243 12.28 4 12.24v-.48c3.243-.04 5.066-.261 6.282-1.478z"/>
</svg>
<svg viewBox="0 0 24 24" id="social5" xmlns="http://www.w3.org/2000/svg">
<path fill-rule="evenodd" clip-rule="evenodd" d="M12 24c6.627 0 12-5.373 12-12S18.627 0 12 0 0 5.373 0 12s5.373 12 12 12zm4.83-13.745c0 1.216-.556 2.184-1.421 2.892L18 18h-3.327l-1.905-4.065H9.846V18l-2.842-.023L7 6l6.019.024c2.104 0 3.81 1.568 3.81 3.702v.53zm-4.423 1.187c.838 0 1.518-.482 1.518-1.332v-.097c0-.85-.68-1.447-1.518-1.447h-2.56v2.876h2.56z"/>
</svg>
<svg viewBox="0 0 24 24" id="tg" xmlns="http://www.w3.org/2000/svg">
<path fill-rule="evenodd" clip-rule="evenodd" d="M12 24c6.627 0 12-5.373 12-12S18.627 0 12 0 0 5.373 0 12s5.373 12 12 12zM7.473 13.049l-3.226-1.204a.38.38 0 01-.003-.712l13.239-5.107a.38.38 0 01.509.432l-2.376 11.429a.38.38 0 01-.596.23l-3.243-2.355a.536.536 0 00-.654.018l-1.798 1.466a.38.38 0 01-.603-.182L7.473 13.05zm7.352-4.524l-6.304 3.883a.635.635 0 00-.278.714l.682 2.395c.048.17.295.152.318-.023l.177-1.313c.034-.248.152-.475.335-.646L14.958 8.7c.097-.09-.02-.244-.133-.174z"/>
</svg>
<svg viewBox="0 0 24 24" id="tiktok" xmlns="http://www.w3.org/2000/svg">
<path d="M13.246.063C6.653-.598.74 4 .064 10.332-.612 16.664 4.152 22.339 10.752 23c6.6.661 12.495-3.936 13.182-10.269C24.622 6.4 19.84.743 13.246.063zm4.46 10.298a.195.195 0 01-.123.177.195.195 0 01-.074.013 5.226 5.226 0 01-2.973-.855v4.46a.232.232 0 010 .07 4.262 4.262 0 01-4.33 3.903 4.261 4.261 0 01-4.352-4.178 4.263 4.263 0 014.34-4.166h.209a.197.197 0 01.19.19v2.29a.198.198 0 01-.197.189h-.086a1.517 1.517 0 101.442 1.669l.018-1.116V5.059a.193.193 0 01.197-.19h2.375a.19.19 0 01.194.168c.371 2.82 2.85 2.869 2.973 2.869a.194.194 0 01.197.19v2.266z"/>
</svg>
<svg viewBox="0 0 24 24" id="vk" xmlns="http://www.w3.org/2000/svg">
<path d="M12.004 0a12 12 0 10-.008 24 12 12 0 00.008-24zm6.058 16.59h-1.48c-.565 0-.729-.44-1.734-1.426-.88-.834-1.258-.943-1.477-.943-.471 0-.39.156-.39 1.804 0 .358-.116.565-1.059.565-1.558 0-3.288-.935-4.516-2.658C5.572 11.404 5.07 9.491 5.07 9.105c0-.214.086-.39.506-.39h1.48c.39 0 .523.16.671.566.725 2.072 1.948 3.896 2.447 3.896.19 0 .272-.086.272-.554V10.48c-.054-.985-.588-1.067-.588-1.418a.355.355 0 01.39-.33h2.337c.312 0 .421.163.421.533v2.88c0 .307.14.416.234.416.187 0 .347-.109.69-.448a12.045 12.045 0 001.82-2.973.635.635 0 01.646-.39h1.453c.448 0 .542.227.448.534-.187.846-1.99 3.343-1.995 3.347-.155.246-.218.39 0 .647.086.117 1.987 1.89 2.268 2.75.136.355-.078.562-.499.562h-.008z"/>
</svg>
    <!-- Стрелка влево -->
<svg id="pag-left" viewBox="0 0 14 12">
  <path d="M13.1875 6.09821L1.5 6M1.5 6L7.29204 11.5M1.5 6L7.29204 0.499999"/>
</svg>

<!-- Маленький телефон -->
<svg id="phone-icon" viewBox="0 0 16 17"  xmlns="http://www.w3.org/2000/svg">
<path d="M15.0175 11.8C14.9765 11.7675 12 9.622 11.183 9.776C10.793 9.845 10.57 10.111 10.1225 10.6435C10.0505 10.7295 9.8775 10.9355 9.743 11.082C9.4602 10.9898 9.18433 10.8775 8.9175 10.746C7.54026 10.0755 6.4275 8.96274 5.757 7.5855C5.62543 7.31871 5.51315 7.04284 5.421 6.76C5.568 6.625 5.774 6.452 5.862 6.378C6.392 5.933 6.6585 5.71 6.7275 5.319C6.869 4.509 4.725 1.512 4.7025 1.485C4.60522 1.34604 4.47827 1.23043 4.33084 1.14655C4.1834 1.06267 4.01916 1.01261 3.85 1C2.981 1 0.5 4.2185 0.5 4.7605C0.5 4.792 0.5455 7.994 4.494 12.0105C8.5065 15.9545 11.708 16 11.7395 16C12.282 16 15.5 13.519 15.5 12.65C15.4875 12.4814 15.4378 12.3177 15.3543 12.1707C15.2709 12.0238 15.1558 11.8971 15.0175 11.8V11.8Z"/>
</svg>

<!-- иконка email -->
<svg id="mail-icon" viewBox="0 0 16 17" xmlns="http://www.w3.org/2000/svg">
<path d="M8.47185 10.5161C8.32172 10.6019 8.15013 10.6448 8 10.6448C7.84987 10.6448 7.67828 10.6019 7.52815 10.5161L0 5.92627V12.0389C0 13.3472 1.05094 14.3981 2.35925 14.3981H13.6407C14.9491 14.3981 16 13.3472 16 12.0389V5.92627L8.47185 10.5161Z"/>
<path d="M13.6408 2.60193H2.35925C1.24397 2.60193 0.300271 3.39549 0.0643463 4.44643L8 9.29362L15.9357 4.44643C15.6997 3.39549 14.756 2.60193 13.6408 2.60193Z" />
</svg>
