<!-- svg  Женя-->

<svg display="none" xmlns="http://www.w3.org/2000/svg">
  <!-- Английская версия -->
  <symbol id="eng-v" viewBox="0 0 16 12">
    <path d="M1.784 10.432V6.592H6.152V5.024H1.784V2.368H6.52V0.799999H0.12V12H6.6V10.432H1.784ZM12.2885 4.368C11.1525 4.368 10.3525 4.88 9.8725 5.728H9.8405V4.608H8.2725V12H9.8405V8.464C9.8405 6.624 10.6565 5.936 11.8085 5.936C12.8645 5.936 13.5045 6.464 13.5045 7.728V12H15.0725V7.456C15.0725 5.216 13.8725 4.368 12.2885 4.368Z"/>
  </symbol>

  <!-- Версия для чтения -->
  <symbol id="read" viewBox="0 0 30 13">
    <path fill-rule="evenodd" clip-rule="evenodd" d="M12.8903 6.55733C12.8596 9.63753 10.3531 12.125 7.26562 12.125C4.15903 12.125 1.64062 9.60659 1.64062 6.5C1.64062 6.42148 1.64223 6.34334 1.64542 6.26562H0.703125C0.314801 6.26562 0 5.95084 0 5.5625C0 5.17416 0.314801 4.85938 0.703125 4.85938H1.88365C2.58579 2.55308 4.72973 0.875 7.26562 0.875C9.84987 0.875 12.0271 2.6177 12.6862 4.99201C13.8328 4.37021 15.2297 4.37021 16.3763 4.99203C17.0354 2.6177 19.2126 0.875 21.7969 0.875C24.3328 0.875 26.4766 2.55308 27.1788 4.85938H28.3594C28.7477 4.85938 29.0625 5.17416 29.0625 5.5625C29.0625 5.95084 28.7477 6.26562 28.3594 6.26562H27.4172C27.4202 6.34334 27.4219 6.42148 27.4219 6.5C27.4219 9.60659 24.9035 12.125 21.7969 12.125C18.7094 12.125 16.2029 9.63753 16.1722 6.55733C15.2406 5.72344 13.8219 5.72344 12.8903 6.55733ZM11.4844 6.5C11.4844 8.82995 9.59557 10.7188 7.26562 10.7188C4.93568 10.7188 3.04688 8.82995 3.04688 6.5C3.04688 4.17005 4.93568 2.28125 7.26562 2.28125C9.59557 2.28125 11.4844 4.17005 11.4844 6.5ZM21.7969 10.7188C24.1268 10.7188 26.0156 8.82995 26.0156 6.5C26.0156 4.17005 24.1268 2.28125 21.7969 2.28125C19.4669 2.28125 17.5781 4.17005 17.5781 6.5C17.5781 8.82995 19.4669 10.7188 21.7969 10.7188Z" />
 </symbol>

  <!-- Поиск -->
  <symbol id="search" viewBox="0 0 17 17">
    <g clip-path="url(#clip0_1317_1291)">
    <path d="M15.5513 15.0735L11.7433 11.1129C12.7224 9.94901 13.2589 8.48455 13.2589 6.95999C13.2589 3.39801 10.3608 0.5 6.79886 0.5C3.23688 0.5 0.338867 3.39801 0.338867 6.95999C0.338867 10.522 3.23688 13.42 6.79886 13.42C8.13608 13.42 9.41038 13.0167 10.4999 12.251L14.3368 16.2416C14.4972 16.4082 14.7129 16.5 14.9441 16.5C15.1629 16.5 15.3704 16.4166 15.528 16.2649C15.8628 15.9428 15.8735 15.4085 15.5513 15.0735ZM6.79886 2.18522C9.43173 2.18522 11.5736 4.32713 11.5736 6.95999C11.5736 9.59286 9.43173 11.7348 6.79886 11.7348C4.16599 11.7348 2.02408 9.59286 2.02408 6.95999C2.02408 4.32713 4.16599 2.18522 6.79886 2.18522Z"/>
    </g>
    <defs>
    <clipPath id="clip0_1317_1291">
    <rect width="16" height="16" fill="white" transform="translate(0.0625 0.5)"/>
    </clipPath>
    </defs>
  </symbol>

  <!-- Личный кабинет -->
  <symbol id="lk" viewBox="0 0 17 17">
    <g clip-path="url(#clip0_1317_1293)">
    <path d="M10.6525 8.29771C11.3412 7.73842 11.8447 6.96986 12.0927 6.09922C12.3408 5.22857 12.321 4.29924 12.0362 3.44082C11.7514 2.5824 11.2157 1.83768 10.5039 1.31051C9.79207 0.78334 8.93958 0.5 8.0653 0.5C7.19102 0.5 6.33853 0.78334 5.62671 1.31051C4.9149 1.83768 4.37923 2.5824 4.09442 3.44082C3.8096 4.29924 3.78983 5.22857 4.03787 6.09922C4.28591 6.96986 4.78939 7.73842 5.4781 8.29771C4.17692 8.83539 3.06077 9.7657 2.27369 10.9686C1.48661 12.1715 1.06473 13.5918 1.0625 15.0461V15.773C1.0625 15.9658 1.13625 16.1507 1.26753 16.2871C1.3988 16.4234 1.57685 16.5 1.7625 16.5H14.3625C14.5482 16.5 14.7262 16.4234 14.8575 16.2871C14.9888 16.1507 15.0625 15.9658 15.0625 15.773V15.0461C15.0607 13.5924 14.6397 12.1726 13.8536 10.9698C13.0676 9.76701 11.9526 8.8363 10.6525 8.29771ZM5.2625 4.86865C5.2625 4.29353 5.42672 3.73133 5.73439 3.25314C6.04205 2.77495 6.47935 2.40224 6.99099 2.18215C7.50262 1.96207 8.06561 1.90448 8.60875 2.01668C9.1519 2.12888 9.65081 2.40583 10.0424 2.81249C10.434 3.21916 10.7007 3.73729 10.8087 4.30136C10.9167 4.86542 10.8613 5.45009 10.6494 5.98143C10.4374 6.51277 10.0786 6.96691 9.6181 7.28643C9.15764 7.60594 8.61629 7.77648 8.0625 7.77648C7.31989 7.77648 6.6077 7.47012 6.0826 6.9248C5.5575 6.37947 5.2625 5.63985 5.2625 4.86865ZM2.4625 15.0461C2.4625 13.5037 3.0525 12.0244 4.1027 10.9338C5.15291 9.84312 6.57729 9.2304 8.0625 9.2304C9.54771 9.2304 10.9721 9.84312 12.0223 10.9338C13.0725 12.0244 13.6625 13.5037 13.6625 15.0461H2.4625Z" />
    </g>
    <defs>
    <clipPath id="clip0_1317_1293">
    <rect width="16" height="16" fill="white" transform="translate(0.0625 0.5)"/>
    </clipPath>
    </defs>
 </symbol>

   <!-- Настройки -->
  <symbol id="settings" viewBox="0 0 17 17">
    <g clip-path="url(#clip0_1317_8028)">
    <path d="M15.3598 9.77172L14.6942 9.22378C14.2383 8.84844 14.2391 8.15081 14.6942 7.77622L15.3598 7.22828C15.8335 6.83831 15.9546 6.16963 15.6479 5.63822L14.3336 3.36178C14.0268 2.83041 13.3869 2.60103 12.8125 2.81622L12.0052 3.11869C11.4522 3.32581 10.8484 2.97647 10.7515 2.39491L10.6098 1.54447C10.5089 0.939281 9.99038 0.5 9.37681 0.5H6.74822C6.13463 0.5 5.61606 0.939281 5.51522 1.5445L5.37347 2.39491C5.27638 2.9775 4.67181 3.32547 4.11984 3.11872L3.3125 2.81622C2.73803 2.60103 2.09828 2.83044 1.79144 3.36178L0.477157 5.63819C0.170376 6.16953 0.291501 6.83825 0.76522 7.22825L1.43081 7.77619C1.88681 8.15156 1.88591 8.84912 1.43081 9.22375L0.765188 9.77169C0.291501 10.1617 0.170345 10.8304 0.477126 11.3617L1.79144 13.6382C2.09825 14.1695 2.73788 14.3989 3.3125 14.1838L4.11981 13.8813C4.67291 13.6741 5.27653 14.0237 5.37344 14.6051L5.51519 15.4554C5.61606 16.0607 6.13463 16.5 6.74819 16.5H9.37678C9.99035 16.5 10.5089 16.0607 10.6098 15.4555L10.7515 14.6051C10.8485 14.0227 11.4531 13.6745 12.0051 13.8813L12.8125 14.1838C13.3871 14.399 14.0268 14.1696 14.3336 13.6382L15.6479 11.3617C15.9546 10.8304 15.8335 10.1617 15.3598 9.77172ZM13.251 13.0132L12.4437 12.7107C11.1531 12.2273 9.74463 13.0429 9.51853 14.3996L9.37681 15.25H6.74822L6.60647 14.3996C6.37994 13.0403 4.96941 12.2282 3.68131 12.7107L2.87397 13.0132L1.55969 10.7368L2.22528 10.1888C3.28931 9.31291 3.28709 7.68528 2.22528 6.81116L1.55969 6.26322L2.874 3.98678L3.68131 4.28925C4.97194 4.77269 6.38038 3.95706 6.60647 2.60041L6.74819 1.75H9.37678L9.5185 2.60041C9.74506 3.95984 11.1557 4.77169 12.4437 4.28925L13.251 3.98678L14.5656 6.26291C14.5656 6.26291 14.5655 6.263 14.5653 6.26319L13.8997 6.81112C12.8357 7.687 12.8378 9.31466 13.8997 10.1888L14.5653 10.7367L13.251 13.0132ZM8.0625 5.41666C6.36234 5.41666 4.97916 6.79984 4.97916 8.5C4.97916 10.2002 6.36234 11.5833 8.0625 11.5833C9.76266 11.5833 11.1458 10.2002 11.1458 8.5C11.1458 6.79984 9.76266 5.41666 8.0625 5.41666ZM8.0625 10.3333C7.05159 10.3333 6.22916 9.51091 6.22916 8.5C6.22916 7.48909 7.05159 6.66666 8.0625 6.66666C9.07341 6.66666 9.89584 7.48909 9.89584 8.5C9.89584 9.51091 9.07341 10.3333 8.0625 10.3333Z"/>
    </g>
    <defs>
    <clipPath id="clip0_1317_8028">
    <rect width="16" height="16" fill="white" transform="translate(0.0625 0.5)"/>
    </clipPath>
    </defs>
 </symbol>
 
    <!-- Логотип -->
 <symbol viewBox="0 0 144 21" id="logo">
    <g clip-path="url(#ca)">
    <path d="M5.691 3.668c3.093 0 5.577 2.359 5.577 5.556 0 3.144-2.535 5.555-5.425 5.555-1.369 0-2.687-.42-3.65-1.573H2.09v8.071H.012V10.062c0-3.878 2.18-6.394 5.679-6.394zm-.05 9.224c2.027 0 3.447-1.677 3.447-3.72 0-1.992-1.369-3.67-3.448-3.67-2.079 0-3.498 1.625-3.498 3.67 0 2.043 1.47 3.72 3.498 3.72zm7.554-3.668c0-3.197 2.586-5.556 5.628-5.556 3.043 0 5.629 2.359 5.629 5.556 0 3.196-2.586 5.555-5.629 5.555-3.042 0-5.628-2.359-5.628-5.555zm5.628 3.668c2.08 0 3.448-1.625 3.448-3.668 0-2.044-1.42-3.669-3.448-3.669s-3.447 1.625-3.447 3.669c0 2.043 1.369 3.668 3.447 3.668zm13.234 1.887c-3.245 0-5.679-2.359-5.679-5.555 0-3.197 2.384-5.556 5.629-5.556 2.484 0 4.766 1.363 5.374 4.036h-2.13c-.506-1.415-1.774-2.149-3.194-2.149-2.18 0-3.498 1.677-3.498 3.72 0 2.045 1.369 3.67 3.55 3.67 1.419 0 2.686-.682 3.193-2.202h2.13c-.76 2.726-2.992 4.036-5.375 4.036zm13.031-1.52l-3.397-7.337h-.05v8.647h-1.978V3.88h3.144l3.346 7.284h.05l3.347-7.285h3.144v10.639h-1.977V5.922h-.051l-3.397 7.337h-2.18zm9.837-4.035c0-3.197 2.586-5.556 5.628-5.556 3.042 0 5.628 2.359 5.628 5.556 0 3.196-2.586 5.555-5.628 5.555-3.042 0-5.628-2.359-5.628-5.555zm5.679 3.668c2.079 0 3.448-1.625 3.448-3.668 0-2.044-1.42-3.669-3.448-3.669-2.08 0-3.448 1.625-3.448 3.669-.05 2.043 1.369 3.668 3.448 3.668zm6.642 1.729v-2.2h.05c.406 0 .863-.158 1.167-.525.406-.419.558-1.258.76-2.41l.305-1.73c.355-1.939 1.014-3.93 3.853-3.93h4.006v10.69h-2.079V5.818h-1.623c-1.622 0-1.926.472-2.332 2.725l-.253 1.572c-.254 1.468-.609 2.726-1.319 3.512-.557.629-1.318.943-2.383.943h-.152v.052zM79.72 9.224c0-3.197 2.585-5.556 5.627-5.556 3.043 0 5.629 2.359 5.629 5.556 0 3.196-2.586 5.555-5.629 5.555-3.042 0-5.628-2.359-5.628-5.555zm5.627 3.668c2.08 0 3.448-1.625 3.448-3.668 0-2.044-1.42-3.669-3.448-3.669-2.078 0-3.447 1.625-3.447 3.669 0 2.043 1.42 3.668 3.447 3.668zm8.063 4.245h-1.978v-4.56h1.318c.609-.68.913-1.729 1.166-2.934l.457-1.992c.405-1.886 1.217-3.825 3.752-3.825h4.006v8.752h1.47v4.559h-1.978v-2.568h-8.264v2.568h.05zm6.692-4.507V5.817h-1.926c-1.268 0-1.674 1.048-1.927 2.149l-.456 2.044c-.254 1.153-.609 2.096-1.015 2.463v.157h5.324zm10.699 2.149c-3.296 0-5.679-2.359-5.679-5.555 0-3.197 2.383-5.556 5.578-5.556 2.484 0 5.425 1.677 5.425 5.713V9.8h-8.975c.203 1.782 1.572 3.092 3.6 3.092 1.217 0 2.637-.472 3.043-1.52h2.129c-.608 2.358-2.991 3.407-5.121 3.407zM107.252 0h2.129v2.201h-2.129V0zm6.794 8.175c-.304-1.624-1.521-2.672-3.346-2.672-1.775 0-3.043 1.153-3.398 2.672h6.744zM111.866 0h2.129v2.201h-2.129V0zm14.045 3.878v4.245h1.724l2.434-4.245h2.281l-3.042 5.084 3.245 5.555h-2.332l-2.586-4.507h-1.775v4.507h-1.927V10.01h-1.724l-2.585 4.507h-2.333l3.245-5.555-3.042-5.084h2.282l2.433 4.245h1.724V3.878h1.978zm8.113 5.87l-.051-5.87h2.079v3.04h.05c.862-1.1 1.978-1.625 3.296-1.625 2.535 0 4.564 1.94 4.564 4.664 0 2.778-2.079 4.822-4.969 4.822-2.84 0-4.969-2.097-4.969-5.031zm4.969 3.144c1.622 0 2.839-1.205 2.839-2.83 0-1.624-1.217-2.882-2.839-2.882-1.623 0-2.789 1.205-2.789 2.882s1.166 2.83 2.789 2.83z"/>
    </g>
    <defs>
    <clipPath id="ca">
    <path d="M0 0h144v21H0z"/>
    </clipPath>
    </defs>

 </symbol>
  <!-- Шеврон -->
  <symbol viewBox="0 0 12 12" id="chevron-right">
    <path d="M4.207.293a1 1 0 00-1.414 1.414L4.207.293zM8.5 6l.707.707a1 1 0 000-1.414L8.5 6zm-5.707 4.293a1 1 0 101.414 1.414l-1.414-1.414zm0-8.586l5 5 1.414-1.414-5-5-1.414 1.414zm5 3.586l-5 5 1.414 1.414 5-5-1.414-1.414z"/>
  </symbol>

    <!-- <svg class="icon header eng-v">
          <use href="./assets/svg/sprite.svg#eng-v"></use>
      </svg> -->
</svg>