<svg width="106" height="29" viewBox="0 0 106 29" fill="none" xmlns="http://www.w3.org/2000/svg">
<path d="M37.4103 15.314H35.7693V22.9337H32V4.25655H35.7693V11.7223H37.0385L40.2822 4.25655H44.872L40.3078 12.9537L45.3848 22.9337H40.8975L37.4103 15.314Z" fill="white"/>
<path d="M46.7951 22.9337V4.25655H52.5644C54.5131 4.25655 55.9918 4.6927 57.0003 5.56498C58.0174 6.42871 58.526 7.69865 58.526 9.3748C58.526 10.3241 58.3166 11.1407 57.8978 11.8249C57.479 12.509 56.9063 13.0093 56.1798 13.3257C57.0174 13.5652 57.6627 14.0484 58.1157 14.7753C58.5687 15.4936 58.7952 16.383 58.7952 17.4434C58.7952 19.2564 58.2952 20.6247 57.2952 21.5483C56.3037 22.4719 54.8635 22.9337 52.9746 22.9337H46.7951ZM50.5643 14.8137V19.8037H52.9746C53.6498 19.8037 54.1627 19.5942 54.5131 19.1752C54.8635 18.7561 55.0388 18.1618 55.0388 17.3921C55.0388 15.716 54.4319 14.8565 53.2182 14.8137H50.5643ZM50.5643 12.0686H52.5259C54.0046 12.0686 54.7439 11.3032 54.7439 9.77246C54.7439 8.92583 54.5729 8.31866 54.2311 7.95093C53.8892 7.5832 53.3336 7.39934 52.5644 7.39934H50.5643V12.0686Z" fill="white"/>
<path d="M74.1928 16.7122C74.0988 18.8416 73.5005 20.4536 72.398 21.5483C71.2954 22.6429 69.7398 23.1902 67.7312 23.1902C65.6201 23.1902 64.0004 22.4975 62.8722 21.1121C61.7525 19.7182 61.1927 17.7342 61.1927 15.1601V12.0173C61.1927 9.45177 61.7739 7.4763 62.9363 6.09091C64.0987 4.69697 65.7141 4 67.7825 4C69.8167 4 71.3595 4.56869 72.4108 5.70608C73.4706 6.84347 74.0732 8.47686 74.2185 10.6063H70.4364C70.4022 9.28928 70.1971 8.38279 69.821 7.88679C69.4535 7.38223 68.774 7.12996 67.7825 7.12996C66.7739 7.12996 66.0603 7.48486 65.6415 8.19465C65.2226 8.8959 65.0004 10.0547 64.9748 11.671V15.1986C64.9748 17.0543 65.1799 18.3285 65.5902 19.0212C66.009 19.7139 66.7227 20.0603 67.7312 20.0603C68.7227 20.0603 69.4065 19.8208 69.7825 19.3419C70.1586 18.8545 70.3723 17.9779 70.4236 16.7122H74.1928Z" fill="white"/>
<path d="M89.7268 20.0656V22.9819H78.6929V20.0656H82.4152V10.4966C82.4152 10.2535 82.4196 10.0105 82.4285 9.76748C82.4374 9.51578 82.4507 9.26408 82.4684 9.01237L80.2616 10.809C80.0666 10.9566 79.8716 11.0477 79.6767 11.0824C79.4906 11.1085 79.3133 11.1085 79.1449 11.0824C78.9765 11.0477 78.8259 10.9913 78.6929 10.9132C78.56 10.8264 78.4625 10.7396 78.4005 10.6528L77.0977 8.9603L83.1331 4H86.5363V20.0656H89.7268Z" fill="white"/>
<path d="M100.417 15.6131V10.6658C100.417 10.362 100.426 10.0365 100.444 9.68937C100.47 9.33351 100.506 8.96463 100.55 8.58274L95.432 15.6131H100.417ZM106.001 15.6131V17.8784C106.001 18.078 105.93 18.2516 105.788 18.3992C105.655 18.5467 105.46 18.6205 105.203 18.6205H104.007V22.9819H100.417V18.6205H92.627C92.37 18.6205 92.1351 18.5424 91.9224 18.3862C91.7186 18.2299 91.5901 18.0346 91.5369 17.8003L91.1115 15.8084L100.072 4.01302H104.007V15.6131H106.001Z" fill="white"/>
<path d="M6.28962 0V10.2497L0 13.9769L18.17 9.31795V0H6.28962Z" fill="white"/>
<path d="M6.28999 15.8406V13.9771L24.46 9.55103L18.1704 13.0453V14.6759L0.699219 19.1019L6.28999 15.8406Z" fill="white"/>
<path d="M24.4585 14.9087L6.52148 19.1018V23.2948L12.5782 28.1868L18.1689 20.4995V18.17L24.4585 14.9087Z" fill="white"/>
</svg>
